<?xml version="1.0" encoding="UTF-8"?>
<svg width="281px" height="352px" viewBox="0 0 281 352" version="1.1" xmlns="http://www.w3.org/2000/svg" xmlns:xlink="http://www.w3.org/1999/xlink">
    <title>hazharLogo</title>
    <g id="Page-1" stroke="none" stroke-width="1" fill="none" fill-rule="evenodd">
        <rect id="Rectangle" fill="#FFFFFF" x="-301" y="-164" width="1007" height="708"></rect>
        <g id="Pink" transform="translate(0.000000, -0.000000)">
            <path d="M120.695116,0 L226.485823,0 C256.3092,-5.47846538e-15 280.485823,24.1766235 280.485823,54 L280.485823,164.723545 C280.485823,184.506339 264.4487,200.543462 244.665906,200.543462 C235.085336,200.543462 225.904046,196.705515 219.173643,189.88723 L157.954847,127.869062 C157.892592,127.805994 157.830181,127.743079 157.767616,127.680318 L94.1736435,63.8872298 C79.571957,49.2398247 79.6090192,25.5287512 94.2564243,10.9270647 C101.275992,3.92940669 110.783429,8.92617484e-15 120.695116,0 Z" id="Rectangle" fill="#EA577B" transform="translate(155.485823, 126.000000) rotate(180.000000) translate(-155.485823, -126.000000) "></path>
            <path d="M90.2092932,100 L196,100 C225.823376,100 250,124.176624 250,154 L250,264.723545 C250,284.506339 233.962877,300.543462 214.180083,300.543462 C204.599513,300.543462 195.418222,296.705515 188.68782,289.88723 L127.469024,227.869062 C127.406768,227.805994 127.344358,227.743079 127.281792,227.680318 L63.6878202,163.88723 C49.0861337,149.239825 49.1231959,125.528751 63.770601,110.927065 C70.790169,103.929407 80.2976055,100 90.2092932,100 Z" id="Rectangle" fill="#3DBCF8" opacity="0.666829427"></path>
        </g>
    </g>
</svg>