<?xml version="1.0" encoding="UTF-8"?>
<svg width="714px" height="993px" viewBox="0 0 714 993" version="1.1" xmlns="http://www.w3.org/2000/svg" xmlns:xlink="http://www.w3.org/1999/xlink">
    <title>GenRepo Landing</title>
    <g id="Page-1" stroke="none" stroke-width="1" fill="none" fill-rule="evenodd">
        <g id="BackGround-Image" transform="translate(647.500000, -2066.000000)">
            <g id="Background" transform="translate(0.000000, 0.000000)"></g>
        </g>
        <g id="Group" transform="translate(-0.000000, 0.000000)">
            <rect id="Rectangle" fill="#FFFFFF" x="0" y="0" width="714" height="993"></rect>
            <g id="X-Purple-Done" transform="translate(478.865200, 716.520970) rotate(-14.000000) translate(-478.865200, -716.520970) translate(464.739705, 697.249318)" stroke="#9F30DB" stroke-linecap="square" stroke-width="13">
                <line x1="-3.37450547" y1="8.27165224" x2="31.4865153" y2="30.0924056" id="Line" transform="translate(14.125495, 19.271652) scale(-1, 1) rotate(100.956086) translate(-14.125495, -19.271652) "></line>
                <line x1="-3.37450547" y1="8.27165224" x2="31.4865153" y2="30.0924056" id="Line" transform="translate(14.125495, 19.271652) rotate(100.956086) translate(-14.125495, -19.271652) "></line>
            </g>
            <line x1="313.5" y1="595.5" x2="353.364812" y2="622.235683" id="Done" stroke="#FEE845" stroke-width="13" stroke-linecap="square" transform="translate(333.432406, 608.867842) rotate(35.000000) translate(-333.432406, -608.867842) "></line>
            <line x1="208.823797" y1="740.390996" x2="228.226621" y2="749.900975" id="Done" stroke="#A9F5FC" stroke-width="13" stroke-linecap="square" transform="translate(218.361808, 745.165293) rotate(64.151875) translate(-218.361808, -745.165293) "></line>
            <circle id="Done" fill="#000000" cx="476.5" cy="496.5" r="9"></circle>
            <line x1="446.806276" y1="577.492295" x2="487.714276" y2="565.208706" id="Done" stroke="#48FBC0" stroke-width="13" stroke-linecap="square" transform="translate(467.306276, 570.992295) rotate(-2.000000) translate(-467.306276, -570.992295) "></line>
            <line x1="220.552626" y1="344.928566" x2="254.956482" y2="363.971393" id="Done" stroke="#E8DAFD" stroke-width="13" stroke-linecap="square" transform="translate(237.591669, 354.235710) rotate(21.151875) translate(-237.591669, -354.235710) "></line>
            <g id="Oval" transform="translate(377.000000, 237.000000)">
                <circle fill="#FF9C48" cx="16" cy="16" r="16"></circle>
                <circle fill="#FFFFFF" cx="16.2909091" cy="15.7090909" r="9.30909091"></circle>
            </g>
        </g>
    </g>
</svg>