<?xml version="1.0" encoding="UTF-8"?>
<svg width="2570px" height="1335px" viewBox="0 0 2570 1335" version="1.1" xmlns="http://www.w3.org/2000/svg" xmlns:xlink="http://www.w3.org/1999/xlink">
    <title>GenRepo Landing</title>
    <g id="Page-1" stroke="none" stroke-width="1" fill="none" fill-rule="evenodd">
        <g id="BackGround-Image">
            <rect id="Rectangle" fill="#FFFFFF" x="0" y="0" width="2560" height="1331"></rect>
            <g id="Background" transform="translate(55.500000, 11.000000)">
                <line x1="105.952028" y1="36.5728973" x2="143.32529" y2="61.6375997" id="Done" stroke="#47FCC0" stroke-width="13" stroke-linecap="square" transform="translate(124.638659, 49.105248) rotate(-1.000000) translate(-124.638659, -49.105248) "></line>
                <line x1="319" y1="35.5000005" x2="358.864813" y2="62.2356831" id="Done" stroke="#9F30DB" stroke-width="13" stroke-linecap="square" transform="translate(338.932406, 48.867842) rotate(-0.000000) translate(-338.932406, -48.867842) "></line>
                <line x1="407.052626" y1="278.928566" x2="441.456482" y2="297.971393" id="Done" stroke="#E8DAFD" stroke-width="13" stroke-linecap="square" transform="translate(424.091670, 288.235710) rotate(46.151876) translate(-424.091670, -288.235710) "></line>
                <line x1="1212.05263" y1="985.928566" x2="1246.45648" y2="1004.97139" id="Done" stroke="#E8DAFD" stroke-width="13" stroke-linecap="square" transform="translate(1229.091670, 995.235710) rotate(21.151875) translate(-1229.091670, -995.235710) "></line>
                <line x1="1039.3238" y1="901.390996" x2="1058.72662" y2="910.900975" id="Done" stroke="#A9F5FC" stroke-width="13" stroke-linecap="square" transform="translate(1048.861809, 906.165293) rotate(64.151875) translate(-1048.861809, -906.165293) "></line>
                <line x1="996.052626" y1="1197.92857" x2="1030.45648" y2="1216.97139" id="Done" stroke="#A9F5FC" stroke-width="13" stroke-linecap="square" transform="translate(1013.091670, 1207.235710) rotate(35.035098) translate(-1013.091670, -1207.235710) "></line>
                <line x1="1.04486389e-07" y1="328.5" x2="39.8648126" y2="355.235683" id="Done" stroke="#48FBC0" stroke-width="13" stroke-linecap="square" transform="translate(19.932406, 341.867842) rotate(-0.000000) translate(-19.932406, -341.867842) "></line>
                <line x1="148" y1="200.5" x2="187.864813" y2="227.235683" id="Done" stroke="#A9F5FC" stroke-width="13" stroke-linecap="square" transform="translate(167.932406, 213.867842) rotate(26.151876) translate(-167.932406, -213.867842) "></line>
                <line x1="197" y1="596.5" x2="236.864813" y2="623.235683" id="Done" stroke="#C733B8" stroke-width="13" stroke-linecap="square" transform="translate(216.932406, 609.867842) rotate(36.151876) translate(-216.932406, -609.867842) "></line>
                <line x1="86.0000001" y1="715.5" x2="125.864813" y2="742.235683" id="Done" stroke="#E2574B" stroke-width="13" stroke-linecap="square" transform="translate(105.932406, 728.867842) rotate(-0.000000) translate(-105.932406, -728.867842) "></line>
                <line x1="786" y1="918.5" x2="825.864813" y2="945.235683" id="Done" stroke="#48FBC0" stroke-width="13" stroke-linecap="square" transform="translate(805.932406, 931.867842) rotate(-2.000000) translate(-805.932406, -931.867842) "></line>
                <line x1="755" y1="305.5" x2="794.864813" y2="332.235683" id="Done" stroke="#FEDBDA" stroke-width="13" stroke-linecap="square" transform="translate(774.932406, 318.867842) rotate(-4.000000) translate(-774.932406, -318.867842) "></line>
                <line x1="319" y1="1114.5" x2="358.864813" y2="1141.23568" id="Done" stroke="#9F30DB" stroke-width="13" stroke-linecap="square" transform="translate(338.932406, 1127.867842) rotate(-3.000000) translate(-338.932406, -1127.867842) "></line>
                <line x1="103" y1="1116.5" x2="142.864813" y2="1143.23568" id="Done" stroke="#48FBC0" stroke-width="13" stroke-linecap="square" transform="translate(122.932406, 1129.867842) rotate(-3.000000) translate(-122.932406, -1129.867842) "></line>
                <line x1="369" y1="933.5" x2="408.864813" y2="960.235683" id="Done" stroke="#A9F5FC" stroke-width="13" stroke-linecap="square" transform="translate(388.932406, 946.867842) rotate(-5.000000) translate(-388.932406, -946.867842) "></line>
                <line x1="147" y1="1277.5" x2="186.864813" y2="1304.23568" id="Done" stroke="#A9F5FC" stroke-width="13" stroke-linecap="square" transform="translate(166.932406, 1290.867842) rotate(25.000000) translate(-166.932406, -1290.867842) "></line>
                <line x1="1183" y1="739.5" x2="1222.86481" y2="766.235683" id="Done" stroke="#FEE845" stroke-width="13" stroke-linecap="square" transform="translate(1202.932406, 752.867842) rotate(23.000000) translate(-1202.932406, -752.867842) "></line>
                <line x1="1397" y1="719.5" x2="1436.86481" y2="746.235683" id="Done" stroke="#48FBC0" stroke-width="13" stroke-linecap="square" transform="translate(1416.932406, 732.867842) rotate(137.151876) translate(-1416.932406, -732.867842) "></line>
                <line x1="1641" y1="538.5" x2="1680.86481" y2="565.235683" id="Done" stroke="#FEDBDA" stroke-width="13" stroke-linecap="square" transform="translate(1660.932406, 551.867842) rotate(100.151876) translate(-1660.932406, -551.867842) "></line>
                <line x1="1526" y1="907.5" x2="1565.86481" y2="934.235683" id="Done" stroke="#FE5744" stroke-width="13" stroke-linecap="square" transform="translate(1545.932406, 920.867842) rotate(-3.000000) translate(-1545.932406, -920.867842) "></line>
                <line x1="2070" y1="202.5" x2="2109.86481" y2="229.235683" id="Done" stroke="#A9F5FC" stroke-width="13" stroke-linecap="square" transform="translate(2089.932406, 215.867842) rotate(25.000000) translate(-2089.932406, -215.867842) "></line>
                <line x1="2321" y1="282.5" x2="2360.86481" y2="309.235683" id="Done" stroke="#E8DAFD" stroke-width="13" stroke-linecap="square" transform="translate(2340.932406, 295.867842) rotate(41.000000) translate(-2340.932406, -295.867842) "></line>
                <line x1="2114" y1="598.5" x2="2153.86481" y2="625.235683" id="Done" stroke="#FF3DEC" stroke-width="13" stroke-linecap="square" transform="translate(2133.932406, 611.867842) rotate(33.000000) translate(-2133.932406, -611.867842) "></line>
                <line x1="2458" y1="732.5" x2="2497.86481" y2="759.235683" id="Line" stroke="#FF3DEC" stroke-width="13" stroke-linecap="square" transform="translate(2477.932406, 745.867842) rotate(51.000000) translate(-2477.932406, -745.867842) "></line>
                <line x1="2288" y1="596.5" x2="2327.86481" y2="623.235683" id="Done" stroke="#FEE845" stroke-width="13" stroke-linecap="square" transform="translate(2307.932406, 609.867842) rotate(116.151876) translate(-2307.932406, -609.867842) "></line>
                <line x1="1972" y1="986.5" x2="2011.86481" y2="1013.23568" id="Done" stroke="#FEDBDA" stroke-width="13" stroke-linecap="square" transform="translate(1991.932406, 999.867842) rotate(137.151876) translate(-1991.932406, -999.867842) "></line>
                <line x1="1998" y1="720.5" x2="2037.86481" y2="747.235683" id="Done" stroke="#FE5744" stroke-width="13" stroke-linecap="square" transform="translate(2017.932406, 733.867842) rotate(-3.000000) translate(-2017.932406, -733.867842) "></line>
                <line x1="1688" y1="538.5" x2="1727.86481" y2="565.235683" id="Done" stroke="#FE5744" stroke-width="13" stroke-linecap="square" transform="translate(1707.932406, 551.867842) rotate(79.151876) translate(-1707.932406, -551.867842) "></line>
                <line x1="1922" y1="330.5" x2="1961.86481" y2="357.235683" id="Done" stroke="#58FBC4" stroke-width="13" stroke-linecap="square" transform="translate(1941.932406, 343.867842) rotate(-3.000000) translate(-1941.932406, -343.867842) "></line>
                <line x1="2237" y1="37.5000005" x2="2276.86481" y2="64.2356831" id="Done" stroke="#9F30DB" stroke-width="13" stroke-linecap="square" transform="translate(2256.932406, 50.867842) rotate(-3.000000) translate(-2256.932406, -50.867842) "></line>
                <line x1="2025" y1="37.5000005" x2="2064.86481" y2="64.2356831" id="Done" stroke="#48FBC0" stroke-width="13" stroke-linecap="square" transform="translate(2044.932406, 50.867842) rotate(-3.000000) translate(-2044.932406, -50.867842) "></line>
                <line x1="2237" y1="1116.5" x2="2276.86481" y2="1143.23568" id="Done" stroke="#9F30DB" stroke-width="13" stroke-linecap="square" transform="translate(2256.932406, 1129.867842) rotate(-3.000000) translate(-2256.932406, -1129.867842) "></line>
                <line x1="2288" y1="930.5" x2="2327.86481" y2="957.235683" id="Done" stroke="#A9F5FC" stroke-width="13" stroke-linecap="square" transform="translate(2307.932406, 943.867842) rotate(-4.000000) translate(-2307.932406, -943.867842) "></line>
                <line x1="2025" y1="1117.5" x2="2064.86481" y2="1144.23568" id="Done" stroke="#48FBC0" stroke-width="13" stroke-linecap="square" transform="translate(2044.932406, 1130.867842) rotate(-3.000000) translate(-2044.932406, -1130.867842) "></line>
                <line x1="566.8652" y1="524.52097" x2="601.726221" y2="546.341724" id="Done" stroke="#FFA475" stroke-width="13" stroke-linecap="square" transform="translate(584.365200, 535.520970) rotate(36.151876) translate(-584.365200, -535.520970) "></line>
                <line x1="547.8652" y1="731.52097" x2="582.726221" y2="753.341724" id="Done" stroke="#FF3DEC" stroke-width="13" stroke-linecap="square" transform="translate(565.365200, 742.520970) rotate(54.956086) translate(-565.365200, -742.520970) "></line>
                <line x1="625.8652" y1="236.52097" x2="660.726221" y2="258.341724" id="Done" stroke="#48FBC0" stroke-width="13" stroke-linecap="square" transform="translate(643.365200, 247.520970) rotate(97.956086) translate(-643.365200, -247.520970) "></line>
                <line x1="998.8652" y1="119.52097" x2="1033.72622" y2="141.341724" id="Done" stroke="#A9F5FC" stroke-width="13" stroke-linecap="square" transform="translate(1016.365200, 130.520970) rotate(31.956086) translate(-1016.365200, -130.520970) "></line>
                <line x1="1199.8652" y1="131.52097" x2="1234.72622" y2="153.341724" id="Done" stroke="#9F30DB" stroke-width="13" stroke-linecap="square" transform="translate(1217.365200, 142.520970) rotate(49.956086) translate(-1217.365200, -142.520970) "></line>
                <line x1="901.8652" y1="594.52097" x2="936.726221" y2="616.341724" id="Done" stroke="#48FBC0" stroke-width="13" stroke-linecap="square" transform="translate(919.365200, 605.520970) rotate(-0.043914) translate(-919.365200, -605.520970) "></line>
                <g id="X-Yellow-Done" transform="translate(895.239706, 556.249318)" stroke="#FEE845" stroke-linecap="square" stroke-width="13">
                    <line x1="-3.37450547" y1="8.27165224" x2="31.4865153" y2="30.0924056" id="Line" transform="translate(14.125495, 19.271652) scale(-1, 1) rotate(100.956086) translate(-14.125495, -19.271652) "></line>
                    <line x1="-3.37450547" y1="8.27165224" x2="31.4865153" y2="30.0924056" id="Line" transform="translate(14.125495, 19.271652) rotate(100.956086) translate(-14.125495, -19.271652) "></line>
                </g>
                <g id="X-Purple-Done" transform="translate(1417.365200, 944.520970) rotate(-14.000000) translate(-1417.365200, -944.520970) translate(1403.239706, 925.249318)" stroke="#9F30DB" stroke-linecap="square" stroke-width="13">
                    <line x1="-3.37450547" y1="8.27165224" x2="31.4865153" y2="30.0924056" id="Line" transform="translate(14.125495, 19.271652) scale(-1, 1) rotate(100.956086) translate(-14.125495, -19.271652) "></line>
                    <line x1="-3.37450547" y1="8.27165224" x2="31.4865153" y2="30.0924056" id="Line" transform="translate(14.125495, 19.271652) rotate(100.956086) translate(-14.125495, -19.271652) "></line>
                </g>
                <g id="X-Yellow-Done" transform="translate(1726.365200, 329.520970) rotate(-50.000000) translate(-1726.365200, -329.520970) translate(1712.239706, 310.249318)" stroke="#FEE845" stroke-linecap="square" stroke-width="13">
                    <line x1="-3.37450547" y1="8.27165224" x2="31.4865153" y2="30.0924056" id="Line" transform="translate(14.125495, 19.271652) scale(-1, 1) rotate(100.956086) translate(-14.125495, -19.271652) "></line>
                    <line x1="-3.37450547" y1="8.27165224" x2="31.4865153" y2="30.0924056" id="Line" transform="translate(14.125495, 19.271652) rotate(100.956086) translate(-14.125495, -19.271652) "></line>
                </g>
                <g id="X-Yellow-Done" transform="translate(1736.365200, 944.520970) rotate(-40.000000) translate(-1736.365200, -944.520970) translate(1722.239706, 925.249318)" stroke="#FEE845" stroke-linecap="square" stroke-width="13">
                    <line x1="-3.37450547" y1="8.27165224" x2="31.4865153" y2="30.0924056" id="Line" transform="translate(14.125495, 19.271652) scale(-1, 1) rotate(100.956086) translate(-14.125495, -19.271652) "></line>
                    <line x1="-3.37450547" y1="8.27165224" x2="31.4865153" y2="30.0924056" id="Line" transform="translate(14.125495, 19.271652) rotate(100.956086) translate(-14.125495, -19.271652) "></line>
                </g>
                <g id="X-Purple-Done" transform="translate(754.239706, 319.249318)" stroke="#9F30DB" stroke-linecap="square" stroke-width="13">
                    <line x1="-3.37450547" y1="8.27165224" x2="31.4865153" y2="30.0924056" id="Line" transform="translate(14.125495, 19.271652) scale(-1, 1) rotate(100.956086) translate(-14.125495, -19.271652) "></line>
                    <line x1="-3.37450547" y1="8.27165224" x2="31.4865153" y2="30.0924056" id="Line" transform="translate(14.125495, 19.271652) rotate(100.956086) translate(-14.125495, -19.271652) "></line>
                </g>
                <line x1="371" y1="596.5" x2="410.864813" y2="623.235683" id="Done" stroke="#FEE846" stroke-width="13" stroke-linecap="square" transform="translate(390.932406, 609.867842) rotate(116.151876) translate(-390.932406, -609.867842) "></line>
                <line x1="1780" y1="117.5" x2="1819.86481" y2="144.235683" id="Done" stroke="#9F30DB" stroke-width="13" stroke-linecap="square" transform="translate(1799.932406, 130.867842) rotate(116.151876) translate(-1799.932406, -130.867842) "></line>
                <line x1="1777" y1="1194.5" x2="1816.86481" y2="1221.23568" id="Done" stroke="#9F30DB" stroke-width="13" stroke-linecap="square" transform="translate(1796.932406, 1207.867842) rotate(116.151876) translate(-1796.932406, -1207.867842) "></line>
                <line x1="1525" y1="61.5000005" x2="1564.86481" y2="88.2356831" id="Done" stroke="#FF9C48" stroke-width="13" stroke-linecap="square" transform="translate(1544.932406, 74.867842) rotate(100.151876) translate(-1544.932406, -74.867842) "></line>
                <line x1="2064" y1="1276.5" x2="2103.86481" y2="1303.23568" id="Done" stroke="#ACF6FB" stroke-width="13" stroke-linecap="square" transform="translate(2083.932406, 1289.867842) rotate(23.151876) translate(-2083.932406, -1289.867842) "></line>
                <line x1="51.0000001" y1="987.5" x2="90.8648126" y2="1014.23568" id="Done" stroke="#FEDBDA" stroke-width="13" stroke-linecap="square" transform="translate(70.932406, 1000.867842) rotate(-42.848124) translate(-70.932406, -1000.867842) "></line>
                <line x1="725" y1="90.5000005" x2="764.864813" y2="117.235683" id="Done" stroke="#FEE845" stroke-width="13" stroke-linecap="square" transform="translate(744.932406, 103.867842) rotate(34.000000) translate(-744.932406, -103.867842) "></line>
                <line x1="723" y1="1168.5" x2="762.864813" y2="1195.23568" id="Done" stroke="#FEE845" stroke-width="13" stroke-linecap="square" transform="translate(742.932406, 1181.867842) rotate(35.000000) translate(-742.932406, -1181.867842) "></line>
                <circle id="Done" fill="#000000" cx="212.5" cy="303" r="9"></circle>
                <circle id="Done" fill="#000000" cx="310.5" cy="466" r="9"></circle>
                <circle id="Done" fill="#000000" cx="48.5000004" cy="552" r="9"></circle>
                <circle id="Done" fill="#000000" cx="516.5" cy="111" r="9"></circle>
                <circle id="Done" fill="#000000" cx="921.5" cy="29" r="9"></circle>
                <circle id="Done" fill="#000000" cx="896.5" cy="425" r="9"></circle>
                <circle id="Done" fill="#000000" cx="590.5" cy="936" r="9"></circle>
                <circle id="Done" fill="#000000" cx="920.5" cy="1109" r="9"></circle>
                <circle id="Done" fill="#000000" cx="517.5" cy="1191" r="9"></circle>
                <circle id="Done" fill="#000000" cx="1445.5" cy="613" r="9"></circle>
                <circle id="Done" fill="#000000" cx="1797.5" cy="9" r="9"></circle>
                <circle id="Done" fill="#000000" cx="2135.5" cy="303" r="9"></circle>
                <circle id="Done" fill="#000000" cx="2230.5" cy="467" r="9"></circle>
                <circle id="Done" fill="#000000" cx="1968.5" cy="551" r="9"></circle>
                <circle id="Done" fill="#000000" cx="1796.5" cy="1091" r="9"></circle>
            </g>
        </g>
    </g>
</svg>