<?xml version="1.0" encoding="UTF-8"?>
<svg width="382px" height="479px" viewBox="0 0 382 479" version="1.1" xmlns="http://www.w3.org/2000/svg" xmlns:xlink="http://www.w3.org/1999/xlink">
    <title>hazharLogo</title>
    <g id="Page-1" stroke="none" stroke-width="1" fill="none" fill-rule="evenodd">
        <g id="Pink">
            <path d="M164.734922,2.84217094e-14 L328,2.84217094e-14 C357.823376,3.00486714e-14 382,24.1766235 382,54 L382,224.254895 C382,251.154988 360.193166,272.961823 333.293073,272.961823 C320.258784,272.961823 307.768305,267.737578 298.615435,258.457618 L215.324215,174.009877 C215.261986,173.946784 215.199601,173.883843 215.137062,173.821057 L128.615435,86.9576183 C108.745691,67.0093768 108.809326,34.7305217 128.757568,14.8607776 C138.312379,5.34356497 151.248938,2.37936171e-14 164.734922,2.84217094e-14 Z" id="Rectangle" fill="#EA577B" transform="translate(212.000000, 171.500000) rotate(180.000000) translate(-212.000000, -171.500000) "></path>
            <path d="M122.734922,136 L286,136 C315.823376,136 340,160.176624 340,190 L340,360.254895 C340,387.154988 318.193166,408.961823 291.293073,408.961823 C278.258784,408.961823 265.768305,403.737578 256.615435,394.457618 L173.324215,310.009877 C173.261986,309.946784 173.199601,309.883843 173.137062,309.821057 L86.6154354,222.957618 C66.7456913,203.009377 66.809326,170.730522 86.7575676,150.860778 C96.3123789,141.343565 109.248938,136 122.734922,136 Z" id="Rectangle" fill="#3DBCF8" opacity="0.666829427"></path>
        </g>
    </g>
</svg>