<svg width="64" height="64" viewBox="0 0 64 64" fill="none" xmlns="http://www.w3.org/2000/svg">
  <rect width="64" height="64" rx="20" fill="#0F1D3D"/>
  <path d="M18 32.4C18 24.1178 24.7178 17.4 33 17.4H46V25H33.2C29.5374 25 26.4 28.1374 26.4 31.8C26.4 35.4626 29.5374 38.6 33.2 38.6H39.4C45.4825 38.6 50.4 43.5175 50.4 49.6V50H42.8C36.7175 50 31.8 45.0825 31.8 39V38.6H39.4C42.0148 38.6 44.1 36.5148 44.1 33.9C44.1 31.2852 42.0148 29.2 39.4 29.2H32.8C24.5178 29.2 17.8 22.4822 17.8 14.2V14H25.4C31.4825 14 36.4 18.9175 36.4 25V25.4H28.8C26.1852 25.4 24.1 27.4852 24.1 30.1C24.1 32.7148 26.1852 34.8 28.8 34.8H35.4C43.6822 34.8 50.4 41.5178 50.4 49.8V51.4H42.8V49.8C42.8 46.3374 40.0626 43.6 36.6 43.6H30.4C23.7374 43.6 18 37.8626 18 31.2V32.4Z" fill="#D2E823"/>
</svg>
