<svg width="240" height="56" viewBox="0 0 240 56" fill="none" xmlns="http://www.w3.org/2000/svg">
  <rect width="56" height="56" rx="18" fill="#0F1D3D"/>
  <path d="M16 27.2C16 20.0143 21.7143 14.3 28.9 14.3H40.2V21.1H29.3C26.15 21.1 23.5 23.75 23.5 26.9C23.5 30.05 26.15 32.7 29.3 32.7H34.7C40.8429 32.7 45.8 37.6571 45.8 43.8V44H39C32.8571 44 27.9 39.0429 27.9 32.9V32.7H34.7C37.085 32.7 39 30.785 39 28.4C39 26.015 37.085 24.1 34.7 24.1H28.9C21.7143 24.1 16 18.3857 16 11.2V11H22.8C28.9429 11 33.9 15.9571 33.9 22.1V22.3H27.1C24.715 22.3 22.8 24.215 22.8 26.6C22.8 28.985 24.715 30.9 27.1 30.9H32.9C40.0857 30.9 45.8 36.6143 45.8 43.8V44.8H39V43.4C39 40.015 36.285 37.3 32.9 37.3H27.5C21.1671 37.3 16 32.1329 16 25.8V27.2Z" fill="#D2E823"/>
  <path d="M72 37V18.4H84.84C90.64 18.4 94.24 21.16 94.24 25.84C94.24 28.6 92.76 30.84 90.24 31.88C93.36 32.72 95.2 35.08 95.2 38.28C95.2 43.16 91.28 46 85.16 46H72V37ZM79.4 29.76H83.92C85.88 29.76 87.04 28.84 87.04 27.32C87.04 25.84 85.88 24.92 83.92 24.92H79.4V29.76ZM79.4 39.48H84.36C86.4 39.48 87.72 38.52 87.72 36.84C87.72 35.2 86.4 34.24 84.36 34.24H79.4V39.48Z" fill="#0F1D3D"/>
  <path d="M98.7 46V18.4H106.1V29.24L114.62 18.4H123.5L114.02 30.2L124.06 46H115.3L108.82 35.6L106.1 38.92V46H98.7Z" fill="#0F1D3D"/>
  <path d="M128.051 46V18.4H149.691V24.72H135.451V29.08H147.851V35.08H135.451V39.68H150.171V46H128.051Z" fill="#0F1D3D"/>
  <path d="M154.939 46V18.4H168.459C174.739 18.4 178.619 21.56 178.619 26.88C178.619 30.44 176.619 33.24 173.259 34.56L179.179 46H170.979L166.099 35.96H162.339V46H154.939ZM162.339 29.96H167.579C169.859 29.96 171.219 28.76 171.219 26.76C171.219 24.84 169.859 23.68 167.579 23.68H162.339V29.96Z" fill="#0F1D3D"/>
  <path d="M182.222 46V18.4H189.622V39.44H201.022V46H182.222Z" fill="#0F1D3D"/>
  <path d="M204.312 46V18.4H211.712V46H204.312Z" fill="#0F1D3D"/>
  <path d="M216.762 46V18.4H224.162V39.44H235.562V46H216.762Z" fill="#0F1D3D"/>
</svg>
